Coordinates
version=1
nRows=10
nColumns=40
inDegrees=yes

Units are S.I. units (second, meters, Newtons, ...)
If the header above contains a line with 'inDegrees', this indicates whether rotational values are in degrees (yes) or radians (no).

endheader
time	pelvis_tilt	pelvis_list	pelvis_rotation	pelvis_tx	pelvis_ty	pelvis_tz	hip_flexion_r	hip_adduction_r	hip_rotation_r	knee_angle_r	knee_angle_r_beta	ankle_angle_r	subtalar_angle_r	mtp_angle_r	hip_flexion_l	hip_adduction_l	hip_rotation_l	knee_angle_l	knee_angle_l_beta	ankle_angle_l	subtalar_angle_l	mtp_angle_l	lumbar_extension	lumbar_bending	lumbar_rotation	arm_flex_r	arm_add_r	arm_rot_r	elbow_flex_r	pro_sup_r	wrist_flex_r	wrist_dev_r	arm_flex_l	arm_add_l	arm_rot_l	elbow_flex_l	pro_sup_l	wrist_flex_l	wrist_dev_l
      6.59999999999999964473	     23.62020527844698492004	      2.91800156037332003578	   -178.35861699096531651776	      0.37851868449277070727	      0.82244787339186464781	     -0.59087612890433649504	     50.87694760514897041048	    -13.82989178163790278120	    -13.21490129924621292901	     23.62145633283596168894	      0.41227218712405311329	     -4.91128608863001847595	      0.00000000000000000000	      0.00000000000000000000	     54.75172119183116592467	    -15.20071937770668313306	     -2.68169505776574546019	     27.61554852078409894034	      0.48198224643193227079	     -2.79552845497923385665	      0.00000000000000000000	      0.00000000000000000000	    -53.05737231656864594243	      1.19096740949545210064	      3.25152067572973901832	     55.90095294777061241120	    -25.75440071377048667500	     60.02385585791357414109	     27.64919788252011301211	     63.50114177249794522595	      0.00000000000000000000	      0.00000000000000000000	     60.73634965833951326886	     -6.30768579574371024421	     15.47349617256729281678	     15.65310374575572183176	     40.02264258481200442930	      0.00000000000000000000	      0.00000000000000000000
      6.60500000000000042633	     23.42775783178890236513	      2.93141917693387510369	   -178.39096559757567206361	      0.37828500142391208172	      0.82273642147763870192	     -0.59080984899293220725	     50.66763614040489471790	    -13.80421369591156555146	    -13.28963183610474629859	     23.62907469051457098885	      0.41240515254913939769	     -4.95684490308011227455	      0.00000000000000000000	      0.00000000000000000000	     54.55816859882634162204	    -15.23225542960017442340	     -2.66888309232506415469	     27.67461700354681397584	      0.48301318594029912790	     -2.69075705440339563168	      0.00000000000000000000	      0.00000000000000000000	    -53.02555249787891966662	      1.17755818272244594525	      3.34859763102867757922	     55.04168028481124252949	    -25.51511301599910197524	     57.46005193589570581025	     27.83266628076939142034	     61.98477108623698228484	      0.00000000000000000000	      0.00000000000000000000	     60.65529792075692228082	     -6.21854446040001640483	     15.69092178023988104485	     15.60392754576833240776	     40.18606275397826266271	      0.00000000000000000000	      0.00000000000000000000
      6.61000000000000031974	     23.14644063460260525744	      2.92648543396955851392	   -178.37342317938541214062	      0.37797950961505749623	      0.82315814848969048878	     -0.59066724348114096887	     50.38378203925873322078	    -13.85102318712181279636	    -13.46052953729179435527	     23.72279503331693817358	      0.41404088110713849202	     -4.83751735763087964415	      0.00000000000000000000	      0.00000000000000000000	     54.27917908722261586263	    -15.23408854408596901919	     -2.70916425630202972741	     27.73960944965947916785	      0.48414751811389017400	     -2.66749056020020969271	      0.00000000000000000000	      0.00000000000000000000	    -53.09907610383270082366	      1.21156404184260546586	      3.30520842805364267747	     55.00075322101253050278	    -25.63212141543475652838	     57.88998075854671299112	     27.99823243073256762159	     62.18202299406449640173	      0.00000000000000000000	      0.00000000000000000000	     60.63083043586767217903	     -6.17329233090228957082	     15.55505574675549773644	     15.21518961871373853967	     40.15601952750587599894	      0.00000000000000000000	      0.00000000000000000000
      6.61500000000000021316	     22.94968530546304918971	      2.95078421907945331881	   -178.43366560835684708763	      0.37778454719781939808	      0.82345922271257032676	     -0.59070214483900529423	     50.16827749182994011790	    -13.77288815913814268299	    -13.44356562931429266428	     23.69504174147267150374	      0.41355649478618916604	     -4.86178820426447355629	      0.00000000000000000000	      0.00000000000000000000	     54.09352311042191985280	    -15.31790322967203721305	     -2.73802046661843290210	     27.83391535990106291365	      0.48579346675169604586	     -2.61170343257628490008	      0.00000000000000000000	      0.00000000000000000000	    -53.07420800893628864969	      1.21139636353682655923	      3.32607625217677593810	     54.82923463363825078432	    -25.54057947580484366767	     57.68568160567219393897	     27.90298124319100381285	     62.38034392570848751802	      0.00000000000000000000	      0.00000000000000000000	     60.37861264790146975656	     -6.26763550423569082426	     15.59459219879710545342	     15.39737675034944253127	     40.16304025370857999633	      0.00000000000000000000	      0.00000000000000000000
      6.62000000000000010658	     22.81008832890014303985	      2.92053548331607526478	   -178.43667777161482490555	      0.37767754341655002115	      0.82354518018536482238	     -0.59063348430955986412	     50.07155077328977910156	    -13.81552572267693612673	    -13.43832219730530042057	     23.79372262254920400437	      0.41527880106974357499	     -4.83595134140071802875	      0.00000000000000000000	      0.00000000000000000000	     53.96309041815470664005	    -15.28479820232145947045	     -2.67799319243514943878	     27.88741579511351531551	      0.48672722549740321529	     -2.51917839377300545323	      0.00000000000000000000	      0.00000000000000000000	    -52.96801257456176870164	      1.22825543654164093255	      3.23627176240846337052	     55.10038390718334255780	    -25.67623754682078285327	     59.24472362136768310847	     27.76519559270418469055	     63.92796107983674147590	      0.00000000000000000000	      0.00000000000000000000	     60.02871305916876565334	     -6.46635760155480276978	     15.98312311099681259918	     15.70586687638976286507	     40.00217790348810353862	      0.00000000000000000000	      0.00000000000000000000
      6.62500000000000000000	     22.64271294201098427834	      2.94995691350760491645	   -178.44771946416804553337	      0.37741828098274943226	      0.82369054913578920729	     -0.59060224577569131466	     49.92017314097522273642	    -13.80471695038627366614	    -13.53420759018160701714	     23.89565947428753034387	      0.41705793476169472633	     -4.83772770047173228392	      0.00000000000000000000	      0.00000000000000000000	     53.83294464034153037346	    -15.32841006175338094408	     -2.64838504826112997037	     28.00241218839533630103	      0.48873429118808930927	     -2.36916393292366667112	      0.00000000000000000000	      0.00000000000000000000	    -52.89338819479687003877	      1.23811024416158055317	      3.31707659563194701136	     54.24198550458192613632	    -25.45090929736486629054	     56.81379876273670248565	     27.97753096035999575975	     62.50553419766066554075	      0.00000000000000000000	      0.00000000000000000000	     59.96002381980735407296	     -6.38458878888311787136	     16.21571139590386678719	     15.45965450491869574989	     40.15382260934497793414	      0.00000000000000000000	      0.00000000000000000000
      6.62999999999999989342	     22.40983170682482494840	      2.94854345192886269089	   -178.47542479071208276764	      0.37711640670914048368	      0.82401011803014623247	     -0.59063864889316930462	     49.67856209284289548123	    -13.77720720076866633974	    -13.56820968183474640512	     23.92022782651795154152	      0.41748673339990521880	     -4.76241242914456552882	      0.00000000000000000000	      0.00000000000000000000	     53.58869072218430318344	    -15.37220735622111611463	     -2.69191592015809755267	     28.06106609434284493432	      0.48975799496602839822	     -2.32644227351662635783	      0.00000000000000000000	      0.00000000000000000000	    -52.88704371765280853879	      1.21889141486312135854	      3.38281792048070251155	     53.64629723536010885709	    -25.32454654874812050025	     55.29454961519490296951	     28.16542410153278908069	     61.56657720694045110577	      0.00000000000000000000	      0.00000000000000000000	     59.83683848654695935920	     -6.34128011370670652269	     16.40905265222509612499	     15.47778037695093544812	     40.30447600256344742320	      0.00000000000000000000	      0.00000000000000000000
      6.63499999999999978684	     22.13150132443226780765	      2.93921031318660919140	   -178.47691332511607242850	      0.37684887396646771229	      0.82437580634894624954	     -0.59062694860464037827	     49.39915759386719429358	    -13.78689164261963107094	    -13.61745591695543922128	     23.98836906332276086573	      0.41867602233853029592	     -4.67010008638503126832	      0.00000000000000000000	      0.00000000000000000000	     53.30894435222798932728	    -15.39087676318772679451	     -2.72570856436817754442	     28.14613751429464016951	      0.49124277134353400154	     -2.26769322555605512548	      0.00000000000000000000	      0.00000000000000000000	    -52.93957692015452209944	      1.26680839314508886240	      3.23728954131894841595	     54.41728359737403764029	    -25.58856589959015437330	     58.52188533875648346338	     27.90285710174591571331	     63.83310560166798097725	      0.00000000000000000000	      0.00000000000000000000	     59.44866808201738450634	     -6.66377978055823572134	     16.66310760535588997300	     15.80460617810177481601	     40.19934545748012055810	      0.00000000000000000000	      0.00000000000000000000
      6.63999999999999968026	     21.92277261061449067370	      2.92856330317561530663	   -178.49135873360404502819	      0.37651695395415268885	      0.82460511966632932257	     -0.59061578377055434785	     49.21764261330133649608	    -13.80682384521143823974	    -13.68262362042055002576	     24.11091552842401952717	      0.42081486164122761107	     -4.65027259597250974821	      0.00000000000000000000	      0.00000000000000000000	     53.10226997247205105168	    -15.42512515820565077718	     -2.79114224070251149001	     28.23744116370579959607	      0.49283632064484533819	     -2.10704866293948045453	      0.00000000000000000000	      0.00000000000000000000	    -52.89446823950017773086	      1.24216815672525315861	      3.29134117033768047733	     53.65322917149789105906	    -25.37325481258938708606	     56.38122018720965655803	     28.04653314466070668232	     62.60235490406689962128	      0.00000000000000000000	      0.00000000000000000000	     59.36624417732152636518	     -6.56242119694626246940	     16.73105028351139011988	     15.59993643259457485328	     40.33420010709325254084	      0.00000000000000000000	      0.00000000000000000000
      6.64499999999999957367	     21.75544284031850139627	      2.98547454602633122178	   -178.48905807099885123534	      0.37634019980176280917	      0.82486595892985214995	     -0.59058316451434755834	     48.98728798844221188347	    -13.72916469284211338220	    -13.65522032409184838286	     24.03894759420862570209	      0.41955878423331027793	     -4.62657427012283761769	      0.00000000000000000000	      0.00000000000000000000	     52.95272056075521049934	    -15.48853514815520959758	     -2.75481139630527760431	     28.30073788682854996068	      0.49394105686906059072	     -2.10028631296449708188	      0.00000000000000000000	      0.00000000000000000000	    -52.82563966361504270708	      1.30907938561012304746	      3.28515903098626660395	     53.40183331847018166627	    -25.24518544790084106921	     55.88745365947990961786	     28.02015787285754555569	     62.66228428260023974872	      0.00000000000000000000	      0.00000000000000000000	     59.20752221082903332672	     -6.58188575632353334299	     16.56154486015564231138	     15.56723301762519717784	     40.33302396122770261400	      0.00000000000000000000	      0.00000000000000000000
